<?xml version="1.0" encoding="iso-8859-1"?>
<svg width="1024" height="512" viewBox="0 0 1024 512" fill="none" xmlns="http://www.w3.org/2000/svg">
  <path opacity="0.25" d="M105.101 426.398C62.8375 453.232 25.6649 485.484 0.0552762 512L0 374.055C16.3526 361.102 32.7686 349.371 49.1933 338.923L51.5881 337.342C75.7948 320.859 101.748 307.118 130.918 295.335C218.237 260.051 318.972 249.327 425.611 237.986L425.942 237.951C447.799 235.627 470.376 233.225 493.238 230.552C594.811 218.688 741.645 194.14 864.438 144.538L869.982 141.66C943.513 107.058 1001.7 63.2156 1024 0L1024 173.298C982.958 203.112 948.333 222.634 903.229 240.859C769.747 294.784 613.14 321.117 505.254 333.718C482.307 336.402 459.889 338.788 438.181 341.097L437.691 341.149L437.463 341.173L436.581 341.266C337.329 351.824 243.597 361.797 169.71 391.661C147.364 400.684 127.705 411.077 109.606 423.427L108.937 423.881L105.101 426.398Z" fill="#71D6E0"/>
</svg>