<?xml version="1.0" encoding="iso-8859-1"?>
<svg width="664" height="372" viewBox="0 0 664 372" fill="none" xmlns="http://www.w3.org/2000/svg">
  <rect width="664" height="372" fill="white"/>
  <path fill-rule="evenodd" clip-rule="evenodd" d="M77.992 55.19L76.592 46.598C76.5664 46.4324 76.4827 46.2814 76.3559 46.1718C76.2292 46.0622 76.0675 46.0014 75.9 46H51.4C50.7 46 50 46.716 50 47.434V57.284C50 57.64 50.256 58 50.6 58H53.694C54.166 56.562 55.506 55.6 57.1 55.6C58.694 55.6 60.036 56.562 60.506 58H67.594C68.066 56.562 69.406 55.6 71 55.6C72.594 55.6 73.934 56.562 74.406 58H77.3C77.686 58 78 57.678 78 57.284V55.308C78 55.268 77.996 55.228 77.992 55.188V55.19ZM72.312 49.58C72.312 49.184 72.628 48.864 73.012 48.864H75.186C75.3579 48.8644 75.5236 48.928 75.6516 49.0427C75.7795 49.1574 75.8608 49.3152 75.88 49.486L76.25 52.35C76.263 52.4507 76.2546 52.553 76.2253 52.6502C76.196 52.7474 76.1465 52.8373 76.08 52.914C76.0157 52.9904 75.9355 53.0517 75.845 53.0939C75.7544 53.136 75.6558 53.1579 75.556 53.158H73.012C72.919 53.157 72.8272 53.1376 72.7417 53.1011C72.6562 53.0645 72.5787 53.0115 72.5137 52.945C72.4487 52.8785 72.3974 52.7999 72.3628 52.7136C72.3282 52.6273 72.3109 52.535 72.312 52.442V49.58ZM63.912 49.58C63.912 49.184 64.226 48.864 64.612 48.864H70.212C70.598 48.864 70.912 49.184 70.912 49.58V52.44C70.9131 52.533 70.8958 52.6253 70.8612 52.7116C70.8266 52.7979 70.7753 52.8765 70.7103 52.943C70.6453 53.0095 70.5678 53.0625 70.4823 53.0991C70.3968 53.1356 70.305 53.155 70.212 53.156H64.612C64.519 53.155 64.4272 53.1356 64.3417 53.0991C64.2562 53.0625 64.1787 53.0095 64.1137 52.943C64.0487 52.8765 63.9974 52.7979 63.9628 52.7116C63.9282 52.6253 63.9109 52.533 63.912 52.44V49.58ZM55.512 49.58C55.512 49.184 55.826 48.864 56.212 48.864H61.812C62.2 48.864 62.514 49.184 62.514 49.58V52.44C62.5156 52.6276 62.4429 52.8082 62.3117 52.9424C62.1805 53.0766 62.0016 53.1534 61.814 53.156H56.214C56.121 53.155 56.0292 53.1356 55.9437 53.0991C55.8582 53.0625 55.7807 53.0095 55.7157 52.943C55.6507 52.8765 55.5994 52.7979 55.5648 52.7116C55.5302 52.6253 55.5129 52.533 55.514 52.44V49.58H55.512ZM51.312 49.58C51.312 49.184 51.628 48.864 52.012 48.864H53.414C53.8 48.864 54.112 49.184 54.112 49.58V52.44C54.1133 52.5329 54.0963 52.6251 54.0619 52.7114C54.0275 52.7977 53.9764 52.8764 53.9116 52.9429C53.8468 53.0094 53.7694 53.0624 53.684 53.099C53.5987 53.1356 53.5069 53.155 53.414 53.156H52.014C51.921 53.155 51.8292 53.1356 51.7437 53.0991C51.6582 53.0625 51.5807 53.0095 51.5157 52.943C51.4507 52.8765 51.3994 52.7979 51.3648 52.7116C51.3302 52.6253 51.3129 52.533 51.314 52.44V49.58H51.312Z" fill="#A2AD00"/>
  <path d="M68.9999 59.6C68.9882 59.3301 69.0314 59.0606 69.1267 58.8079C69.2221 58.5551 69.3676 58.3242 69.5547 58.1292C69.7417 57.9343 69.9663 57.7792 70.2148 57.6734C70.4634 57.5676 70.7309 57.5133 71.0011 57.5137C71.2712 57.5141 71.5385 57.5692 71.7868 57.6758C72.035 57.7823 72.2592 57.938 72.4456 58.1336C72.632 58.3291 72.7769 58.5604 72.8715 58.8135C72.9661 59.0666 73.0084 59.3362 72.9959 59.606C72.9721 60.1205 72.7508 60.6059 72.3781 60.9612C72.0054 61.3166 71.51 61.5144 70.995 61.5137C70.4801 61.5129 69.9853 61.3135 69.6136 60.9571C69.242 60.6006 69.0222 60.1145 68.9999 59.6Z" fill="#A2AD00"/>
  <path d="M57.1001 57.5996C55.9981 57.5996 55.1001 58.4976 55.1001 59.5996C55.1001 60.13 55.3108 60.6387 55.6859 61.0138C56.061 61.3889 56.5697 61.5996 57.1001 61.5996C57.6305 61.5996 58.1392 61.3889 58.5143 61.0138C58.8894 60.6387 59.1001 60.13 59.1001 59.5996C59.1001 58.4976 58.2021 57.5996 57.1001 57.5996Z" fill="#A2AD00"/>
  <path fill-rule="evenodd" clip-rule="evenodd" d="M74.636 82.9117H77.5L77.498 82.9097C77.5849 82.9094 77.6704 82.9319 77.746 82.9747C77.8216 83.0176 77.8847 83.0794 77.9292 83.1541C77.9736 83.2288 77.9978 83.3138 77.9993 83.4007C78.0009 83.4876 77.9797 83.5734 77.938 83.6497L74.716 89.5757L74.6848 89.5587C73.8971 89.1297 72.8024 88.5337 71.026 88.5337C69.626 88.5337 68.926 88.9002 68.226 89.2667C67.526 89.6332 66.826 89.9997 65.426 89.9997C64.026 89.9997 63.326 89.6332 62.626 89.2667C61.926 88.9002 61.226 88.5337 59.826 88.5337C58.426 88.5337 57.726 88.9002 57.026 89.2667C56.326 89.6332 55.626 89.9997 54.226 89.9997C52.992 89.9997 52.302 89.7157 51.676 89.3957L54.668 83.3017C54.7259 83.1845 54.8154 83.0859 54.9263 83.017C55.0373 82.9481 55.1654 82.9116 55.296 82.9117H56.63C56.6508 82.9115 56.671 82.9049 56.6879 82.8927C56.7047 82.8805 56.7174 82.8634 56.724 82.8437L58.924 78.3957C58.9824 78.2768 59.0729 78.1767 59.1854 78.1067C59.2978 78.0367 59.4276 77.9996 59.56 77.9997H66.338C66.38 77.9997 66.432 77.9717 66.432 77.8917V76.9657C66.4313 76.7997 66.4765 76.6368 66.5626 76.4949C66.6488 76.353 66.7725 76.2377 66.92 76.1617L69.346 74.7497C69.752 74.5497 70.034 74.7737 70.18 75.1457L70.86 76.7957C70.8667 76.8154 70.8793 76.8325 70.8962 76.8447C70.913 76.8569 70.9332 76.8635 70.954 76.8637H72.062C72.2091 76.8643 72.3521 76.9115 72.4707 76.9984C72.5893 77.0854 72.6772 77.2076 72.722 77.3477L74.536 82.8397C74.5431 82.8606 74.5566 82.8788 74.5745 82.8917C74.5924 82.9046 74.6139 82.9116 74.636 82.9117ZM62.6769 82.7945C62.7519 82.7195 62.794 82.6178 62.794 82.5117H62.796V80.9117C62.796 80.6917 62.616 80.5117 62.396 80.5117H59.496C59.4013 80.5115 59.3084 80.5378 59.2278 80.5876C59.1472 80.6375 59.0822 80.7088 59.04 80.7937L58.278 82.3537C58.072 82.7157 58.294 82.9117 58.544 82.9117H62.394C62.5001 82.9117 62.6019 82.8695 62.6769 82.7945ZM67.0825 82.7922C67.159 82.7157 67.202 82.6119 67.202 82.5037V80.9197C67.202 80.6937 67.02 80.5117 66.794 80.5117H64.01C63.784 80.5117 63.602 80.6937 63.602 80.9197V82.5037C63.602 82.6119 63.645 82.7157 63.7215 82.7922C63.798 82.8687 63.9018 82.9117 64.01 82.9117H66.794C66.9022 82.9117 67.006 82.8687 67.0825 82.7922ZM68.406 82.9137L72.27 82.9117C72.488 82.9117 72.692 82.7837 72.586 82.4537L72.2 80.8937C72.144 80.6697 71.942 80.5117 71.71 80.5117H68.404C68.18 80.5117 68 80.6937 68 80.9137V82.5117C68.0003 82.5647 68.011 82.6172 68.0315 82.6661C68.0521 82.715 68.0821 82.7594 68.1198 82.7968C68.1575 82.8341 68.2022 82.8636 68.2513 82.8837C68.3004 82.9038 68.353 82.9139 68.406 82.9137Z" fill="#007C92"/>
  <path d="M62.2139 93.1523C62.971 93.5498 63.8288 94.0002 65.474 94.0002C67.1171 94.0002 67.977 93.5498 68.732 93.1543L68.736 93.1522C69.398 92.8042 69.918 92.5322 71.072 92.5322C71.898 92.5322 72.398 92.6702 72.858 92.8762L73.816 91.1162C73.164 90.8062 72.358 90.5322 71.072 90.5322C69.428 90.5322 68.566 90.9822 67.808 91.3802L67.8035 91.3826C67.1456 91.7275 66.6253 92.0002 65.474 92.0002C64.3227 92.0002 63.8024 91.7275 63.1445 91.3826L63.14 91.3802C62.382 90.9822 61.52 90.5322 59.874 90.5322C58.228 90.5322 57.368 90.9822 56.608 91.3802L56.6069 91.3808C55.9474 91.7265 55.4253 92.0002 54.272 92.0002C52.7924 92.0002 51.3984 91.1304 51.2898 91.0626L51.286 91.0602L50.894 90.8442L50 92.6322L50.258 92.7742C50.334 92.8242 52.168 94.0002 54.272 94.0002C55.918 94.0002 56.778 93.5502 57.538 93.1502L57.5391 93.1496C58.1986 92.8039 58.7207 92.5302 59.874 92.5302C61.0273 92.5302 61.5494 92.8039 62.2089 93.1496L62.21 93.1502L62.2139 93.1523Z" fill="#007C92"/>
  <path fill-rule="evenodd" clip-rule="evenodd" d="M75.8785 110.151C76.0024 110.251 76.089 110.389 76.1239 110.544L77.9819 118.76C78.0065 118.881 78.0061 119.005 77.9807 119.126C77.9552 119.247 77.9053 119.361 77.8339 119.462L76.2099 121.708C76.1449 121.798 76.0596 121.871 75.9608 121.921C75.8621 121.972 75.7528 121.998 75.6419 121.998H52.3559C52.2453 121.998 52.1364 121.971 52.038 121.921C51.9397 121.87 51.8546 121.797 51.7899 121.708L50.1659 119.46C50.0948 119.359 50.045 119.246 50.0195 119.125C49.9941 119.005 49.9935 118.88 50.0179 118.76L51.8779 110.544C51.9128 110.389 51.9993 110.251 52.1233 110.151C52.2472 110.052 52.4011 109.998 52.5599 109.998H62.8099L66.2099 107.666L62.8079 104.798H64.7359L67.7239 107.156C67.8126 107.218 67.8849 107.3 67.9344 107.397C67.9839 107.493 68.0091 107.6 68.0079 107.708C68.0079 107.952 67.9099 108.068 67.7099 108.218L65.1319 109.998H75.4419C75.6006 109.998 75.7546 110.052 75.8785 110.151ZM55.4466 116.632C55.4818 116.547 55.4999 116.456 55.4999 116.364V113.562C55.4999 113.47 55.4818 113.379 55.4466 113.294C55.4114 113.209 55.3599 113.132 55.2949 113.067C55.2299 113.002 55.1527 112.95 55.0678 112.915C54.9828 112.88 54.8918 112.862 54.7999 112.862H53.3159C53.1569 112.863 53.003 112.918 52.8794 113.018C52.7558 113.118 52.6699 113.257 52.6359 113.412L52.0159 116.212C51.9931 116.314 51.9936 116.42 52.0174 116.523C52.0412 116.625 52.0877 116.72 52.1533 116.802C52.219 116.884 52.3022 116.95 52.3968 116.995C52.4914 117.04 52.595 117.064 52.6999 117.064H54.7999C54.8918 117.064 54.9828 117.046 55.0678 117.011C55.1527 116.975 55.2299 116.924 55.2949 116.859C55.3599 116.794 55.4114 116.717 55.4466 116.632ZM61.7999 117.064C61.9855 117.064 62.1636 116.99 62.2949 116.859C62.4261 116.728 62.4999 116.55 62.4999 116.364L62.4979 116.36V113.56C62.4979 113.374 62.4241 113.196 62.2929 113.065C62.1616 112.934 61.9835 112.86 61.7979 112.86H57.5979C57.4122 112.86 57.2342 112.934 57.1029 113.065C56.9716 113.196 56.8979 113.374 56.8979 113.56V116.364C56.8979 116.55 56.9716 116.728 57.1029 116.859C57.2342 116.99 57.4122 117.064 57.5979 117.064H61.7999ZM68.8199 117.064C69.0055 117.064 69.1836 116.99 69.3149 116.859C69.4461 116.728 69.5199 116.55 69.5199 116.364V113.56C69.5199 113.374 69.4461 113.196 69.3149 113.065C69.1836 112.934 69.0055 112.86 68.8199 112.86H64.6199C64.4342 112.86 64.2562 112.934 64.1249 113.065C63.9936 113.196 63.9199 113.374 63.9199 113.56V116.364C63.9199 116.55 63.9936 116.728 64.1249 116.859C64.2562 116.99 64.4342 117.064 64.6199 117.064H68.8199ZM75.4236 116.995C75.5177 116.949 75.6005 116.883 75.6659 116.802H75.6639C75.7303 116.721 75.7775 116.625 75.8017 116.523C75.826 116.421 75.8267 116.314 75.8039 116.212L75.1859 113.412C75.1517 113.256 75.0652 113.116 74.9408 113.016C74.8164 112.916 74.6615 112.862 74.5019 112.862H71.6199C71.4342 112.862 71.2562 112.936 71.1249 113.067C70.9936 113.198 70.9199 113.376 70.9199 113.562V116.364C70.9199 116.55 70.9936 116.728 71.1249 116.859C71.2562 116.99 71.4342 117.064 71.6199 117.064H75.1219C75.2264 117.064 75.3295 117.04 75.4236 116.995Z" fill="black"/>
  <path d="M76 123.998H52V125.998H76V123.998Z" fill="black"/>
  <rect x="48" y="180" width="216" height="12" fill="#D5D7D9"/>
  <rect x="48" y="200" width="216" height="12" fill="#D5D7D9"/>
  <rect x="48" y="232" width="192" height="12" fill="#D5D7D9"/>
  <rect x="48" y="252" width="64" height="12" fill="#D5D7D9"/>
  <rect x="48" y="312" width="64" height="12" fill="#D5D7D9"/>
  <rect x="48" y="272" width="120" height="12" fill="#D5D7D9"/>
  <rect x="48" y="292" width="120" height="12" fill="#D5D7D9"/>
  <rect x="498" y="182" width="116" height="140" stroke="#007C92" stroke-width="4"/>
  <path d="M519.541 284.357V288.98H522.898V292.145H519.541V302.762C519.541 303.488 519.682 304.016 519.963 304.344C520.256 304.66 520.771 304.818 521.51 304.818C522.002 304.818 522.5 304.76 523.004 304.643V307.947C522.031 308.217 521.094 308.352 520.191 308.352C516.91 308.352 515.27 306.541 515.27 302.92V292.145H512.141V288.98H515.27V284.357H519.541ZM529.252 303.5C530.049 303.5 530.664 303.729 531.098 304.186C531.531 304.631 531.748 305.193 531.748 305.873C531.748 306.541 531.531 307.098 531.098 307.543C530.664 307.977 530.049 308.193 529.252 308.193C528.49 308.193 527.887 307.977 527.441 307.543C526.996 307.109 526.773 306.553 526.773 305.873C526.773 305.193 526.99 304.631 527.424 304.186C527.857 303.729 528.467 303.5 529.252 303.5ZM529.252 288.576C530.049 288.576 530.664 288.805 531.098 289.262C531.531 289.707 531.748 290.27 531.748 290.949C531.748 291.617 531.531 292.174 531.098 292.619C530.664 293.053 530.049 293.27 529.252 293.27C528.49 293.27 527.887 293.053 527.441 292.619C526.996 292.186 526.773 291.629 526.773 290.949C526.773 290.27 526.99 289.707 527.424 289.262C527.857 288.805 528.467 288.576 529.252 288.576ZM542.918 299.844L541.02 301.795V308H536.748V281H541.02V296.574L542.355 294.904L547.611 288.98H552.744L545.678 296.908L553.5 308H548.561L542.918 299.844ZM555.248 298.314C555.248 296.451 555.617 294.775 556.355 293.287C557.094 291.787 558.131 290.639 559.467 289.842C560.803 289.033 562.338 288.629 564.072 288.629C566.639 288.629 568.719 289.455 570.312 291.107C571.918 292.76 572.785 294.951 572.914 297.682L572.932 298.684C572.932 300.559 572.568 302.234 571.842 303.711C571.127 305.188 570.096 306.33 568.748 307.139C567.412 307.947 565.865 308.352 564.107 308.352C561.424 308.352 559.273 307.461 557.656 305.68C556.051 303.887 555.248 301.502 555.248 298.525V298.314ZM559.52 298.684C559.52 300.641 559.924 302.176 560.732 303.289C561.541 304.391 562.666 304.941 564.107 304.941C565.549 304.941 566.668 304.379 567.465 303.254C568.273 302.129 568.678 300.482 568.678 298.314C568.678 296.393 568.262 294.869 567.43 293.744C566.609 292.619 565.49 292.057 564.072 292.057C562.678 292.057 561.57 292.613 560.75 293.727C559.93 294.828 559.52 296.48 559.52 298.684ZM587.002 292.883C586.439 292.789 585.859 292.742 585.262 292.742C583.305 292.742 581.986 293.492 581.307 294.992V308H577.035V288.98H581.113L581.219 291.107C582.25 289.455 583.68 288.629 585.508 288.629C586.117 288.629 586.621 288.711 587.02 288.875L587.002 292.883ZM596.432 284.357V288.98H599.789V292.145H596.432V302.762C596.432 303.488 596.572 304.016 596.854 304.344C597.146 304.66 597.662 304.818 598.4 304.818C598.893 304.818 599.391 304.76 599.895 304.643V307.947C598.922 308.217 597.984 308.352 597.082 308.352C593.801 308.352 592.16 306.541 592.16 302.92V292.145H589.031V288.98H592.16V284.357H596.432Z" fill="#007C92"/>
</svg>